<?xml version="1.0" encoding="iso-8859-1"?>
<!-- Generator: Adobe Illustrator 19.0.0, SVG Export Plug-In . SVG Version: 6.00 Build 0)  -->
<svg version="1.1" id="Capa_1" xmlns="http://www.w3.org/2000/svg" xmlns:xlink="http://www.w3.org/1999/xlink" x="0px" y="0px"
	 viewBox="0 0 456.208 456.208" style="enable-background:new 0 0 456.208 456.208;" xml:space="preserve">
<g>
	<circle style="fill:#ADF0FF;" cx="296.211" cy="248.138" r="16"/>
	<circle style="fill:#ADF0FF;" cx="312.211" cy="424.138" r="16"/>
</g>
<g>
	<circle style="fill:#75E6FF;" cx="184.211" cy="272.138" r="24"/>
	<circle style="fill:#75E6FF;" cx="224.211" cy="376.138" r="24"/>
	<circle style="fill:#75E6FF;" cx="344.211" cy="328.138" r="24"/>
</g>
<g>
	<circle style="fill:#ADF0FF;" cx="128.211" cy="440.138" r="16"/>
	<circle style="fill:#ADF0FF;" cx="96.211" cy="336.138" r="16"/>
</g>
<path style="fill:#4DC4E0;" d="M424.209,136.135c-6.173,0.003-12.211,1.805-17.376,5.184c7.288-34.587-14.841-68.533-49.428-75.821
	c-10.738-2.263-21.877-1.726-32.348,1.557c-11.608-37.995-51.82-59.387-89.815-47.779c-11.768,3.595-22.417,10.149-30.929,19.035
	c-23.024-37.658-72.217-49.52-109.874-26.496C62.522,31.33,48.413,70.373,60.481,105.783c-25.6-6.886-51.935,8.284-58.821,33.884
	s8.284,51.935,33.884,58.821c4.129,1.111,8.388,1.665,12.664,1.647h376c17.673,0,32-14.327,32-32S441.882,136.135,424.209,136.135z"
	/>
<g>
</g>
<g>
</g>
<g>
</g>
<g>
</g>
<g>
</g>
<g>
</g>
<g>
</g>
<g>
</g>
<g>
</g>
<g>
</g>
<g>
</g>
<g>
</g>
<g>
</g>
<g>
</g>
<g>
</g>
</svg>
